# xmcd
#
# Track frame offsets:
#	150
#	29055
#	52920
#	78139
#	102134
#	127080
#	150402
#	169428
#	193115
#	210344
#	236571
#	261444
#	275298
#	297833
#	318791
#
# Disc length: 4565 seconds
#
# Revision: 1
# Processed by: cddbd v1.5.2PL0 Copyright (c) Steve Scherf et al.
# Submitted via: audiograbber 1.83.01
#
DISCID=ce11d30f
DTITLE=Kiera Cass - Selection Storys 1 - Liebe oder Pflicht
DYEAR=2014
DGENRE=Jugend
TTITLE0=14 Liebe oder Pflicht
TTITLE1=15 Liebe oder Pflicht
TTITLE2=16 Liebe oder Pflicht
TTITLE3=17 Liebe oder Pflicht
TTITLE4=18 Liebe oder Pflicht
TTITLE5=19 Liebe oder Pflicht
TTITLE6=20 Liebe oder Pflicht
TTITLE7=21 Liebe oder Pflicht
TTITLE8=22 Liebe oder Pflicht
TTITLE9=23 Liebe oder Pflicht
TTITLE10=24 Liebe oder Pflicht
TTITLE11=25 Liebe oder Pflicht
TTITLE12=26 Liebe oder Pflicht
TTITLE13=27 Liebe oder Pflicht
TTITLE14=28 Liebe oder Pflicht
EXTD=
EXTT0=
EXTT1=
EXTT2=
EXTT3=
EXTT4=
EXTT5=
EXTT6=
EXTT7=
EXTT8=
EXTT9=
EXTT10=
EXTT11=
EXTT12=
EXTT13=
EXTT14=
PLAYORDER=
